<svg width="375" height="385" viewBox="0 0 375 385" fill="none" xmlns="http://www.w3.org/2000/svg">
<path d="M0 0H375V385H0V0Z" fill="#FAFAEF"/>
<path d="M0 320.465H62.5C97.0175 320.465 125 291.769 125 256.372H62.5C27.9825 256.372 0 285.068 0 320.465Z" fill="#2D3652"/>
<path d="M0 320.465H62.5C97.0175 320.465 125 291.769 125 256.372H62.5C27.9825 256.372 0 285.068 0 320.465Z" fill="#2D3652"/>
<path d="M0 0V128.186C0 198.981 55.965 256.372 125 256.372V128.186C125 57.3914 69.035 0 0 0Z" fill="#FF743C"/>
<path d="M62.5 128.628V192.177C62.5 227.631 90.4825 256.372 125 256.372V192.823C125 157.368 97.0175 128.628 62.5 128.628Z" fill="#2D3652"/>
<path d="M282 254.821V318.37C282 353.823 309.983 382.565 344.5 382.565V319.015C344.5 283.561 316.518 254.821 282 254.821Z" fill="#6ED47C"/>
<path d="M375 128.186H250C180.965 128.186 125 185.577 125 256.372H250C319.035 256.372 375 198.981 375 128.186Z" fill="#D5E155"/>
<path d="M250 192.279H187.816C153.124 192.279 125 220.975 125 256.372H187.184C221.877 256.372 250 227.676 250 192.279Z" fill="#2D3652"/>
<path d="M74.569 350.743C74.569 340.125 82.964 331.516 93.319 331.516C103.674 331.516 112.069 340.125 112.069 350.743C112.069 361.362 103.674 369.971 93.319 369.971C82.964 369.971 74.569 361.362 74.569 350.743Z" fill="#FF743C"/>
<path d="M23 352.255C23 346.591 27.4773 342 33 342C38.5227 342 43 346.591 43 352.255C43 357.918 38.5227 362.51 33 362.51C27.4773 362.51 23 357.918 23 352.255Z" fill="#D5E155"/>
<path d="M282 64.0195C282 41.3658 299.909 23 322 23C344.091 23 362 41.3658 362 64.0195C362 86.6732 344.091 105.039 322 105.039C299.909 105.039 282 86.6732 282 64.0195Z" fill="#FF743C"/>
<path d="M303 64.2279C303 53.609 311.395 45 321.75 45C332.105 45 340.5 53.609 340.5 64.2279C340.5 74.8468 332.105 83.4558 321.75 83.4558C311.395 83.4558 303 74.8468 303 64.2279Z" fill="#FFC700"/>
<path d="M125 320.465C125 285.068 152.983 256.372 187.5 256.372C222.018 256.372 250 285.068 250 320.465C250 355.862 222.018 384.558 187.5 384.558H125V320.465Z" fill="#FFC700"/>
<path d="M125 351.848C125 333.539 139.474 318.697 157.328 318.697C175.182 318.697 189.655 333.539 189.655 351.848C189.655 370.158 175.182 385 157.328 385H125V351.848Z" fill="#FF743C"/>
<path d="M125 64.093C125 99.4903 152.983 128.186 187.5 128.186C222.018 128.186 250 99.4903 250 64.093C250 28.6957 222.018 0 187.5 0H125V64.093Z" fill="#6ED47C"/>
<path d="M125 33.1522C125 51.4607 139.474 66.3031 157.328 66.3031C175.182 66.3031 189.655 51.4607 189.655 33.1522C189.655 14.8424 175.182 0 157.328 0H125V33.1522Z" fill="#2D3652"/>
<path d="M125 33.1522C125 51.4607 139.474 66.3031 157.328 66.3031C175.182 66.3031 189.655 51.4607 189.655 33.1522C189.655 14.8424 175.182 0 157.328 0H125V33.1522Z" fill="#2D3652"/>
</svg>
