<svg width="583" height="1156" viewBox="0 0 583 1156" fill="none" xmlns="http://www.w3.org/2000/svg">
<path d="M582.225 577.5C475.264 577.62 388.456 491.532 388.336 385.218L582.008 385L582.225 577.5Z" fill="#FF743C"/>
<path d="M582.225 577.5C475.264 577.62 388.456 491.532 388.336 385.218L582.008 385L582.225 577.5Z" fill="#FF743C"/>
<path d="M193.78 192.937L96.9443 193.046C43.4638 193.106 0.0599207 150.062 0.000101697 96.9046L96.836 96.7956C150.317 96.7354 193.72 139.779 193.78 192.937Z" fill="#D5E155"/>
<path d="M193.78 192.937L96.9443 193.046C43.4638 193.106 0.0599207 150.062 0.000101697 96.9046L96.836 96.7956C150.317 96.7354 193.72 139.779 193.78 192.937Z" fill="#D5E155"/>
<path d="M0.216812 289.404L97.0527 289.295C150.533 289.235 193.84 246.093 193.78 192.937L96.9444 193.045C43.4638 193.106 0.156994 236.247 0.216812 289.404Z" fill="#2D3652"/>
<path d="M0.216812 289.404L97.0527 289.295C150.533 289.235 193.84 246.093 193.78 192.937L96.9444 193.045C43.4638 193.106 0.156994 236.247 0.216812 289.404Z" fill="#2D3652"/>
<path d="M98.0453 578.045L98.1536 674.294C98.2134 727.451 141.617 770.496 195.098 770.435L194.989 674.185C194.93 621.029 151.526 577.984 98.0453 578.045Z" fill="#2D3652"/>
<path d="M582.225 577.5L388.553 577.718C281.592 577.838 194.978 664.122 195.098 770.435L388.769 770.217C495.73 770.097 582.344 683.813 582.225 577.5Z" fill="#FF743C"/>
<path d="M387.993 673.968L291.979 674.076C238.414 674.137 195.038 717.278 195.098 770.435L291.112 770.327C344.679 770.267 388.053 727.125 387.993 673.968Z" fill="#2D3652"/>
<path d="M193.563 0.436637L387.569 0.218319C494.714 0.0977456 581.672 86.1851 581.791 192.5L387.786 192.718C280.64 192.839 193.683 106.751 193.563 0.436637Z" fill="#2D3652"/>
<path d="M193.563 0.436637L387.569 0.218319C494.714 0.0977456 581.672 86.1851 581.791 192.5L387.786 192.718C280.64 192.839 193.683 106.751 193.563 0.436637Z" fill="#2D3652"/>
<path d="M388.679 96.4672L484.693 96.3591C538.259 96.2989 581.732 139.343 581.791 192.5L485.777 192.608C432.21 192.668 388.739 149.624 388.679 96.4672Z" fill="#6ED47C"/>
<path d="M388.679 96.4672L484.693 96.3591C538.259 96.2989 581.732 139.343 581.791 192.5L485.777 192.608C432.21 192.668 388.739 149.624 388.679 96.4672Z" fill="#6ED47C"/>
<path d="M582.008 385L388.336 385.218C281.375 385.338 194.567 299.25 194.448 192.936L388.12 192.718C495.081 192.597 581.888 278.686 582.008 385Z" fill="#F0F1F1"/>
<path d="M582.008 385L388.336 385.218C281.375 385.338 194.567 299.25 194.448 192.936L388.12 192.718C495.081 192.597 581.888 278.686 582.008 385Z" fill="#F0F1F1"/>
<path d="M386.892 288.969L290.878 289.077C237.313 289.138 193.84 246.093 193.78 192.937L289.794 192.829C343.362 192.768 386.833 235.812 386.892 288.969Z" fill="#D5E155"/>
<path d="M386.892 288.969L290.878 289.077C237.313 289.138 193.84 246.093 193.78 192.937L289.794 192.829C343.362 192.768 386.833 235.812 386.892 288.969Z" fill="#D5E155"/>
<path d="M389.203 1155.22L388.986 962.717C388.867 856.404 302.059 770.315 195.098 770.435L195.314 962.935C195.434 1069.25 282.242 1155.34 389.203 1155.22Z" fill="#2D3652"/>
<path d="M292.15 962.826L292.043 867.063C291.983 813.637 248.578 770.375 195.098 770.435L195.206 866.199C195.266 919.626 238.67 962.886 292.15 962.826Z" fill="#F0F1F1"/>
<path d="M145.708 500.327C161.752 500.309 174.773 513.223 174.791 529.169C174.809 545.116 161.817 558.059 145.773 558.077C129.729 558.095 116.708 545.181 116.69 529.235C116.672 513.288 129.664 500.345 145.708 500.327Z" fill="#6ED47C"/>
<path d="M145.708 500.327C161.752 500.309 174.773 513.223 174.791 529.169C174.809 545.116 161.817 558.059 145.773 558.077C129.729 558.095 116.708 545.181 116.69 529.235C116.672 513.288 129.664 500.345 145.708 500.327Z" fill="#6ED47C"/>
<path d="M145.505 23.0596C159.89 23.0434 171.563 34.6208 171.579 48.9182C171.596 63.2156 159.948 74.8192 145.563 74.8354C131.178 74.8516 119.504 63.2742 119.488 48.9768C119.472 34.6794 131.12 23.0758 145.505 23.0596Z" fill="#FF743C"/>
<path d="M145.505 23.0596C159.89 23.0434 171.563 34.6208 171.579 48.9182C171.596 63.2156 159.948 74.8192 145.563 74.8354C131.178 74.8516 119.504 63.2742 119.488 48.9768C119.472 34.6794 131.12 23.0758 145.505 23.0596Z" fill="#FF743C"/>
<path d="M98.2618 770.544C151.742 770.484 195.146 813.528 195.206 866.685C195.266 919.842 151.959 962.984 98.4784 963.044C44.9979 963.104 1.59401 920.06 1.53419 866.903L1.42588 770.653L98.2618 770.544Z" fill="#FF743C"/>
<path d="M485.605 770.108C432.125 770.169 388.818 813.31 388.878 866.467C388.938 919.624 432.342 962.669 485.822 962.608C539.303 962.548 582.61 919.406 582.55 866.249L582.441 770L485.605 770.108Z" fill="#6ED47C"/>
<path d="M532.353 770.056C504.691 770.087 482.291 792.401 482.322 819.898C482.353 847.392 504.803 869.656 532.465 869.625C560.129 869.594 582.528 847.279 582.497 819.785L582.441 770L532.353 770.056Z" fill="#2D3652"/>
<path d="M291.501 385.327C344.981 385.267 388.385 428.311 388.445 481.468C388.505 534.625 345.198 577.766 291.717 577.827C238.237 577.887 194.833 534.843 194.773 481.686C194.713 428.529 238.02 385.387 291.501 385.327Z" fill="#FFC700"/>
<path d="M291.501 385.327C344.981 385.267 388.385 428.311 388.445 481.468C388.505 534.625 345.198 577.766 291.717 577.827C238.237 577.887 194.833 534.843 194.773 481.686C194.713 428.529 238.02 385.387 291.501 385.327Z" fill="#FFC700"/>
<path d="M291.215 428.474C320.905 428.44 345.003 452.338 345.036 481.848C345.069 511.359 321.026 535.311 291.335 535.344C261.645 535.378 237.548 511.48 237.514 481.969C237.481 452.459 261.525 428.507 291.215 428.474Z" fill="#2D3652"/>
<path d="M291.215 428.474C320.905 428.44 345.003 452.338 345.036 481.848C345.069 511.359 321.026 535.311 291.335 535.344C261.645 535.378 237.548 511.48 237.514 481.969C237.481 452.459 261.525 428.507 291.215 428.474Z" fill="#2D3652"/>
<path d="M0.324966 385.654C0.384785 438.811 43.7886 481.856 97.2692 481.795C150.75 481.735 194.057 438.593 193.997 385.436C193.937 332.28 150.533 289.235 97.0525 289.295L0.216654 289.404L0.324966 385.654Z" fill="#FF743C"/>
<path d="M0.324966 385.654C0.384785 438.811 43.7886 481.856 97.2692 481.795C150.75 481.735 194.057 438.593 193.997 385.436C193.937 332.28 150.533 289.235 97.0525 289.295L0.216654 289.404L0.324966 385.654Z" fill="#FF743C"/>
</svg>
