<?xml version="1.0" encoding="UTF-8"?>
<svg xmlns="http://www.w3.org/2000/svg" xmlns:xlink="http://www.w3.org/1999/xlink" width="500" height="625" viewBox="0 0 500 625" version="1.1">
<g id="surface1">
<path style=" stroke:none;fill-rule:nonzero;fill:rgb(100%,45.490196%,23.529412%);fill-opacity:1;" d="M 250 250.214844 C 250 284.734375 222.015625 312.714844 187.5 312.714844 L 187.5 250.214844 Z M 250 250.214844 "/>
<path style=" stroke:none;fill-rule:nonzero;fill:rgb(100%,45.490196%,23.529412%);fill-opacity:1;" d="M 187.5 375.214844 C 152.984375 375.214844 125 347.234375 125 312.714844 L 187.5 312.714844 Z M 187.5 375.214844 "/>
<path style=" stroke:none;fill-rule:nonzero;fill:rgb(94.117647%,94.509804%,94.509804%);fill-opacity:1;" d="M 312.5 312.714844 C 312.5 347.234375 284.515625 375.214844 250 375.214844 L 250 312.714844 Z M 312.5 312.714844 "/>
<path style=" stroke:none;fill-rule:nonzero;fill:rgb(100%,45.490196%,23.529412%);fill-opacity:1;" d="M 0 312.714844 C 0 278.199219 27.980469 250.214844 62.5 250.214844 L 62.5 312.714844 Z M 0 312.714844 "/>
<path style=" stroke:none;fill-rule:nonzero;fill:rgb(100%,78.039216%,0%);fill-opacity:1;" d="M 437.5 125 C 402.984375 125 375 97.015625 375 62.5 L 437.5 62.5 Z M 437.5 125 "/>
<path style=" stroke:none;fill-rule:nonzero;fill:rgb(17.647059%,21.176471%,32.156863%);fill-opacity:1;" d="M 437.5 250.214844 C 402.984375 250.214844 375 222.234375 375 187.714844 L 437.5 187.714844 Z M 437.5 250.214844 "/>
<path style=" stroke:none;fill-rule:nonzero;fill:rgb(83.529412%,88.235294%,33.333333%);fill-opacity:1;" d="M 312.5 125.214844 C 347.015625 125.214844 375 153.199219 375 187.714844 L 312.5 187.714844 Z M 312.5 125.214844 "/>
<path style=" stroke:none;fill-rule:nonzero;fill:rgb(100%,45.490196%,23.529412%);fill-opacity:1;" d="M 187.5 0 C 187.5 34.515625 159.515625 62.5 125 62.5 L 125 0 Z M 187.5 0 "/>
<path style=" stroke:none;fill-rule:nonzero;fill:rgb(17.647059%,21.176471%,32.156863%);fill-opacity:1;" d="M 187.5 312.714844 C 152.980469 312.714844 125 284.734375 125 250.214844 L 187.5 250.214844 Z M 187.5 312.714844 "/>
<path style=" stroke:none;fill-rule:nonzero;fill:rgb(43.137255%,83.137255%,48.627451%);fill-opacity:1;" d="M 187.5 282.113281 C 169.882812 282.113281 155.601562 267.832031 155.601562 250.214844 L 187.5 250.214844 Z M 187.5 282.113281 "/>
<path style=" stroke:none;fill-rule:nonzero;fill:rgb(83.529412%,88.235294%,33.333333%);fill-opacity:1;" d="M 62.5 375.214844 C 27.980469 375.214844 0 347.234375 0 312.714844 L 62.5 312.714844 Z M 62.5 375.214844 "/>
<path style=" stroke:none;fill-rule:nonzero;fill:rgb(17.647059%,21.176471%,32.156863%);fill-opacity:1;" d="M 62.5 344.613281 C 44.882812 344.613281 30.601562 330.332031 30.601562 312.714844 L 62.5 312.714844 Z M 62.5 344.613281 "/>
<path style=" stroke:none;fill-rule:nonzero;fill:rgb(43.137255%,83.137255%,48.627451%);fill-opacity:1;" d="M 250 375.214844 C 215.480469 375.214844 187.5 347.234375 187.5 312.714844 L 250 312.714844 Z M 250 375.214844 "/>
<path style=" stroke:none;fill-rule:nonzero;fill:rgb(83.529412%,88.235294%,33.333333%);fill-opacity:1;" d="M 250 344.613281 C 232.382812 344.613281 218.101562 330.332031 218.101562 312.714844 L 250 312.714844 Z M 250 344.613281 "/>
<path style=" stroke:none;fill-rule:nonzero;fill:rgb(83.529412%,88.235294%,33.333333%);fill-opacity:1;" d="M 62.5 125.214844 L 62.5 156.464844 C 62.5 173.722656 48.507812 187.714844 31.25 187.714844 L 31.25 156.464844 C 31.25 139.207031 45.242188 125.214844 62.5 125.214844 Z M 62.5 125.214844 "/>
<path style=" stroke:none;fill-rule:nonzero;fill:rgb(17.647059%,21.176471%,32.156863%);fill-opacity:1;" d="M 93.75 187.714844 L 93.75 156.464844 C 93.75 139.207031 79.757812 125.214844 62.5 125.214844 L 62.5 156.464844 C 62.5 173.722656 76.492188 187.714844 93.75 187.714844 Z M 93.75 187.714844 "/>
<path style=" stroke:none;fill-rule:nonzero;fill:rgb(17.647059%,21.176471%,32.156863%);fill-opacity:1;" d="M 436.5625 25.625 L 405.3125 25.625 C 388.054688 25.625 374.0625 39.617188 374.0625 56.875 L 405.3125 56.875 C 422.570312 56.875 436.5625 42.882812 436.5625 25.625 Z M 436.5625 25.625 "/>
<path style=" stroke:none;fill-rule:nonzero;fill:rgb(43.137255%,83.137255%,48.627451%);fill-opacity:1;" d="M 31.25 156.464844 L 31.25 187.714844 C 31.25 204.972656 17.257812 218.964844 0 218.964844 L 0 187.714844 C 0 170.457031 13.992188 156.464844 31.25 156.464844 Z M 31.25 156.464844 "/>
<path style=" stroke:none;fill-rule:nonzero;fill:rgb(100%,78.039216%,0%);fill-opacity:1;" d="M 499.0625 31.5625 L 467.8125 31.5625 C 450.554688 31.5625 436.5625 45.554688 436.5625 62.8125 L 467.8125 62.8125 C 485.070312 62.8125 499.0625 48.820312 499.0625 31.5625 Z M 499.0625 31.5625 "/>
<path style=" stroke:none;fill-rule:nonzero;fill:rgb(100%,45.490196%,23.529412%);fill-opacity:1;" d="M 499.0625 31.5625 L 467.8125 31.5625 C 450.554688 31.5625 436.5625 17.570312 436.5625 0.3125 L 467.8125 0.3125 C 485.070312 0.3125 499.0625 14.304688 499.0625 31.5625 Z M 499.0625 31.5625 "/>
<path style=" stroke:none;fill-rule:nonzero;fill:rgb(17.647059%,21.176471%,32.156863%);fill-opacity:1;" d="M 187.5 156.25 L 218.75 156.25 C 236.007812 156.25 250 142.257812 250 125 L 218.75 125 C 201.492188 125 187.5 138.992188 187.5 156.25 Z M 187.5 156.25 "/>
<path style=" stroke:none;fill-rule:nonzero;fill:rgb(43.137255%,83.137255%,48.627451%);fill-opacity:1;" d="M 156.25 187.5 L 187.5 187.5 C 204.757812 187.5 218.75 173.507812 218.75 156.25 L 187.5 156.25 C 170.242188 156.25 156.25 170.242188 156.25 187.5 Z M 156.25 187.5 "/>
<path style=" stroke:none;fill-rule:nonzero;fill:rgb(100%,45.490196%,23.529412%);fill-opacity:1;" d="M 187.5 0 L 187.5 62.5 C 187.5 97.015625 215.484375 125 250 125 L 250 62.5 C 250 27.984375 222.015625 0 187.5 0 Z M 187.5 0 "/>
<path style=" stroke:none;fill-rule:nonzero;fill:rgb(17.647059%,21.176471%,32.156863%);fill-opacity:1;" d="M 218.75 62.714844 L 218.75 93.699219 C 218.75 110.988281 232.742188 125 250 125 L 250 94.015625 C 250 76.726562 236.007812 62.714844 218.75 62.714844 Z M 218.75 62.714844 "/>
<path style=" stroke:none;fill-rule:nonzero;fill:rgb(17.647059%,21.176471%,32.156863%);fill-opacity:1;" d="M 0 125.214844 L 0 62.609375 C 0 28.03125 27.980469 0 62.5 0 L 62.5 62.609375 C 62.5 97.183594 34.519531 125.214844 0 125.214844 Z M 0 125.214844 "/>
<path style=" stroke:none;fill-rule:nonzero;fill:rgb(43.137255%,83.137255%,48.627451%);fill-opacity:1;" d="M 31.25 62.285156 L 31.25 31.300781 C 31.25 14.011719 45.242188 0 62.5 0 L 62.5 30.984375 C 62.5 48.273438 48.507812 62.285156 31.25 62.285156 Z M 31.25 62.285156 "/>
<path style=" stroke:none;fill-rule:nonzero;fill:rgb(94.117647%,94.509804%,94.509804%);fill-opacity:1;" d="M 125 375.214844 L 125 312.714844 C 125 278.199219 97.015625 250.214844 62.5 250.214844 L 62.5 312.714844 C 62.5 347.234375 90.484375 375.214844 125 375.214844 Z M 125 375.214844 "/>
<path style=" stroke:none;fill-rule:nonzero;fill:rgb(100%,78.039216%,0%);fill-opacity:1;" d="M 93.75 312.5 L 93.75 281.515625 C 93.75 264.230469 79.757812 250.214844 62.5 250.214844 L 62.5 281.199219 C 62.5 298.488281 76.492188 312.5 93.75 312.5 Z M 93.75 312.5 "/>
<path style=" stroke:none;fill-rule:nonzero;fill:rgb(94.117647%,94.509804%,94.509804%);fill-opacity:1;" d="M 125 0 L 125 62.5 C 125 97.015625 97.015625 125 62.5 125 L 62.5 62.5 C 62.5 27.984375 90.484375 0 125 0 Z M 125 0 "/>
<path style=" stroke:none;fill-rule:nonzero;fill:rgb(83.529412%,88.235294%,33.333333%);fill-opacity:1;" d="M 93.75 62.929688 L 93.75 93.914062 C 93.75 111.203125 79.757812 125.214844 62.5 125.214844 L 62.5 94.230469 C 62.5 76.945312 76.492188 62.929688 93.75 62.929688 Z M 93.75 62.929688 "/>
<path style=" stroke:none;fill-rule:nonzero;fill:rgb(17.647059%,21.176471%,32.156863%);fill-opacity:1;" d="M 375 62.5 L 312.5 62.5 C 277.984375 62.5 250 90.484375 250 125 L 312.5 125 C 347.015625 125 375 97.015625 375 62.5 Z M 375 62.5 "/>
<path style=" stroke:none;fill-rule:nonzero;fill:rgb(94.117647%,94.509804%,94.509804%);fill-opacity:1;" d="M 312.5 93.75 L 281.40625 93.75 C 264.0625 93.75 250 107.742188 250 125 L 281.09375 125 C 298.4375 125 312.5 111.007812 312.5 93.75 Z M 312.5 93.75 "/>
<path style=" stroke:none;fill-rule:nonzero;fill:rgb(94.117647%,94.509804%,94.509804%);fill-opacity:1;" d="M 375 187.714844 L 312.5 187.714844 C 277.984375 187.714844 250 215.699219 250 250.214844 L 312.5 250.214844 C 347.015625 250.214844 375 222.234375 375 187.714844 Z M 375 187.714844 "/>
<path style=" stroke:none;fill-rule:nonzero;fill:rgb(17.647059%,21.176471%,32.156863%);fill-opacity:1;" d="M 312.285156 218.964844 L 281.300781 218.964844 C 264.011719 218.964844 250 232.957031 250 250.214844 L 280.984375 250.214844 C 298.273438 250.214844 312.285156 236.222656 312.285156 218.964844 Z M 312.285156 218.964844 "/>
<path style=" stroke:none;fill-rule:nonzero;fill:rgb(94.117647%,94.509804%,94.509804%);fill-opacity:1;" d="M 187.5 187.714844 L 125 187.714844 C 90.484375 187.714844 62.5 215.699219 62.5 250.214844 L 125 250.214844 C 159.515625 250.214844 187.5 222.234375 187.5 187.714844 Z M 187.5 187.714844 "/>
<path style=" stroke:none;fill-rule:nonzero;fill:rgb(100%,45.490196%,23.529412%);fill-opacity:1;" d="M 124.785156 218.964844 L 93.800781 218.964844 C 76.511719 218.964844 62.5 232.957031 62.5 250.214844 L 93.484375 250.214844 C 110.773438 250.214844 124.785156 236.222656 124.785156 218.964844 Z M 124.785156 218.964844 "/>
<path style=" stroke:none;fill-rule:nonzero;fill:rgb(17.647059%,21.176471%,32.156863%);fill-opacity:1;" d="M 250 250.214844 L 312.5 250.214844 C 347.015625 250.214844 375 278.199219 375 312.714844 L 312.5 312.714844 C 277.984375 312.714844 250 284.734375 250 250.214844 Z M 250 250.214844 "/>
<path style=" stroke:none;fill-rule:nonzero;fill:rgb(43.137255%,83.137255%,48.627451%);fill-opacity:1;" d="M 312.5 281.464844 L 343.59375 281.464844 C 360.9375 281.464844 375 295.457031 375 312.714844 L 343.90625 312.714844 C 326.5625 312.714844 312.5 298.722656 312.5 281.464844 Z M 312.5 281.464844 "/>
<path style=" stroke:none;fill-rule:nonzero;fill:rgb(43.137255%,83.137255%,48.627451%);fill-opacity:1;" d="M 375 375.214844 L 375 312.714844 C 375 278.199219 402.984375 250.214844 437.5 250.214844 L 437.5 312.714844 C 437.5 347.234375 409.515625 375.214844 375 375.214844 Z M 375 375.214844 "/>
<path style=" stroke:none;fill-rule:nonzero;fill:rgb(17.647059%,21.176471%,32.156863%);fill-opacity:1;" d="M 406.25 312.5 L 406.25 281.515625 C 406.25 264.230469 420.242188 250.214844 437.5 250.214844 L 437.5 281.199219 C 437.5 298.488281 423.507812 312.5 406.25 312.5 Z M 406.25 312.5 "/>
<path style=" stroke:none;fill-rule:nonzero;fill:rgb(100%,45.490196%,23.529412%);fill-opacity:1;" d="M 356.464844 250 C 356.464844 239.644531 364.859375 231.25 375.214844 231.25 C 385.570312 231.25 393.964844 239.644531 393.964844 250 C 393.964844 260.355469 385.570312 268.75 375.214844 268.75 C 364.859375 268.75 356.464844 260.355469 356.464844 250 Z M 356.464844 250 "/>
<path style=" stroke:none;fill-rule:nonzero;fill:rgb(100%,78.039216%,0%);fill-opacity:1;" d="M 365.949219 250.109375 C 365.949219 244.929688 370.144531 240.734375 375.324219 240.734375 C 380.5 240.734375 384.699219 244.929688 384.699219 250.109375 C 384.699219 255.285156 380.5 259.484375 375.324219 259.484375 C 370.144531 259.484375 365.949219 255.285156 365.949219 250.109375 Z M 365.949219 250.109375 "/>
<path style=" stroke:none;fill-rule:nonzero;fill:rgb(100%,45.490196%,23.529412%);fill-opacity:1;" d="M 224.785156 171.011719 C 224.785156 165.835938 228.980469 161.636719 234.160156 161.636719 C 239.335938 161.636719 243.535156 165.835938 243.535156 171.011719 C 243.535156 176.191406 239.335938 180.386719 234.160156 180.386719 C 228.980469 180.386719 224.785156 176.191406 224.785156 171.011719 Z M 224.785156 171.011719 "/>
<path style=" stroke:none;fill-rule:nonzero;fill:rgb(43.137255%,83.137255%,48.627451%);fill-opacity:1;" d="M 162.285156 140.839844 C 162.285156 135.664062 166.480469 131.464844 171.660156 131.464844 C 176.835938 131.464844 181.035156 135.664062 181.035156 140.839844 C 181.035156 146.019531 176.835938 150.214844 171.660156 150.214844 C 166.480469 150.214844 162.285156 146.019531 162.285156 140.839844 Z M 162.285156 140.839844 "/>
<path style=" stroke:none;fill-rule:nonzero;fill:rgb(43.137255%,83.137255%,48.627451%);fill-opacity:1;" d="M 381.898438 16.054688 C 381.898438 10.878906 386.09375 6.679688 391.273438 6.679688 C 396.449219 6.679688 400.648438 10.878906 400.648438 16.054688 C 400.648438 21.234375 396.449219 25.429688 391.273438 25.429688 C 386.09375 25.429688 381.898438 21.234375 381.898438 16.054688 Z M 381.898438 16.054688 "/>
<path style=" stroke:none;fill-rule:nonzero;fill:rgb(83.529412%,88.235294%,33.333333%);fill-opacity:1;" d="M 412.070312 16.054688 C 412.070312 10.878906 416.265625 6.679688 421.445312 6.679688 C 426.621094 6.679688 430.820312 10.878906 430.820312 16.054688 C 430.820312 21.234375 426.621094 25.429688 421.445312 25.429688 C 416.265625 25.429688 412.070312 21.234375 412.070312 16.054688 Z M 412.070312 16.054688 "/>
<path style=" stroke:none;fill-rule:nonzero;fill:rgb(100%,45.490196%,23.529412%);fill-opacity:1;" d="M 54.527344 232.867188 C 54.527344 238.042969 50.328125 242.242188 45.152344 242.242188 C 39.972656 242.242188 35.777344 238.042969 35.777344 232.867188 C 35.777344 227.6875 39.972656 223.492188 45.152344 223.492188 C 50.328125 223.492188 54.527344 227.6875 54.527344 232.867188 Z M 54.527344 232.867188 "/>
<path style=" stroke:none;fill-rule:nonzero;fill:rgb(17.647059%,21.176471%,32.156863%);fill-opacity:1;" d="M 25 232.867188 C 25 238.042969 20.800781 242.242188 15.625 242.242188 C 10.449219 242.242188 6.25 238.042969 6.25 232.867188 C 6.25 227.6875 10.449219 223.492188 15.625 223.492188 C 20.800781 223.492188 25 227.6875 25 232.867188 Z M 25 232.867188 "/>
<path style=" stroke:none;fill-rule:nonzero;fill:rgb(43.137255%,83.137255%,48.627451%);fill-opacity:1;" d="M 54.527344 203.339844 C 54.527344 208.519531 50.328125 212.714844 45.152344 212.714844 C 39.972656 212.714844 35.777344 208.519531 35.777344 203.339844 C 35.777344 198.164062 39.972656 193.964844 45.152344 193.964844 C 50.328125 193.964844 54.527344 198.164062 54.527344 203.339844 Z M 54.527344 203.339844 "/>
<path style=" stroke:none;fill-rule:nonzero;fill:rgb(100%,45.490196%,23.529412%);fill-opacity:1;" d="M 363.148438 121.660156 C 363.148438 116.480469 367.34375 112.285156 372.523438 112.285156 C 377.699219 112.285156 381.898438 116.480469 381.898438 121.660156 C 381.898438 126.835938 377.699219 131.035156 372.523438 131.035156 C 367.34375 131.035156 363.148438 126.835938 363.148438 121.660156 Z M 363.148438 121.660156 "/>
<path style=" stroke:none;fill-rule:nonzero;fill:rgb(100%,45.490196%,23.529412%);fill-opacity:1;" d="M 241.59375 296.765625 C 241.59375 292.125 245.359375 288.363281 250 288.363281 C 254.640625 288.363281 258.40625 292.125 258.40625 296.765625 C 258.40625 301.410156 254.640625 305.171875 250 305.171875 C 245.359375 305.171875 241.59375 301.410156 241.59375 296.765625 Z M 241.59375 296.765625 "/>
<path style=" stroke:none;fill-rule:nonzero;fill:rgb(100%,45.490196%,23.529412%);fill-opacity:1;" d="M 7.328125 140.734375 C 7.328125 136.089844 11.089844 132.328125 15.734375 132.328125 C 20.375 132.328125 24.136719 136.089844 24.136719 140.734375 C 24.136719 145.375 20.375 149.136719 15.734375 149.136719 C 11.089844 149.136719 7.328125 145.375 7.328125 140.734375 Z M 7.328125 140.734375 "/>
<path style=" stroke:none;fill-rule:nonzero;fill:rgb(100%,45.490196%,23.529412%);fill-opacity:1;" d="M 250 156.25 C 250 138.992188 263.992188 125 281.25 125 C 298.507812 125 312.5 138.992188 312.5 156.25 C 312.5 173.507812 298.507812 187.5 281.25 187.5 L 250 187.5 Z M 250 156.25 "/>
<path style=" stroke:none;fill-rule:nonzero;fill:rgb(100%,78.039216%,0%);fill-opacity:1;" d="M 250 171.550781 C 250 162.625 257.238281 155.386719 266.164062 155.386719 C 275.089844 155.386719 282.328125 162.625 282.328125 171.550781 C 282.328125 180.480469 275.089844 187.714844 266.164062 187.714844 L 250 187.714844 Z M 250 171.550781 "/>
<path style=" stroke:none;fill-rule:nonzero;fill:rgb(100%,45.490196%,23.529412%);fill-opacity:1;" d="M 437.5 156.25 C 437.5 138.992188 423.507812 125 406.25 125 C 388.992188 125 375 138.992188 375 156.25 C 375 173.507812 388.992188 187.5 406.25 187.5 L 437.5 187.5 Z M 437.5 156.25 "/>
<path style=" stroke:none;fill-rule:nonzero;fill:rgb(100%,78.039216%,0%);fill-opacity:1;" d="M 437.5 171.335938 C 437.5 162.410156 430.261719 155.171875 421.335938 155.171875 C 412.410156 155.171875 405.171875 162.410156 405.171875 171.335938 C 405.171875 180.261719 412.410156 187.5 421.335938 187.5 L 437.5 187.5 Z M 437.5 171.335938 "/>
<path style=" stroke:none;fill-rule:nonzero;fill:rgb(83.529412%,88.235294%,33.333333%);fill-opacity:1;" d="M 375 31.25 C 375 13.992188 361.007812 0 343.75 0 C 326.492188 0 312.5 13.992188 312.5 31.25 C 312.5 48.507812 326.492188 62.5 343.75 62.5 L 375 62.5 Z M 375 31.25 "/>
<path style=" stroke:none;fill-rule:nonzero;fill:rgb(100%,45.490196%,23.529412%);fill-opacity:1;" d="M 375 46.335938 C 375 37.410156 367.761719 30.171875 358.835938 30.171875 C 349.910156 30.171875 342.671875 37.410156 342.671875 46.335938 C 342.671875 55.261719 349.910156 62.5 358.835938 62.5 L 375 62.5 Z M 375 46.335938 "/>
<path style=" stroke:none;fill-rule:nonzero;fill:rgb(43.137255%,83.137255%,48.627451%);fill-opacity:1;" d="M 250 31.25 C 250 48.507812 263.992188 62.5 281.25 62.5 C 298.507812 62.5 312.5 48.507812 312.5 31.25 C 312.5 13.992188 298.507812 0 281.25 0 L 250 0 Z M 250 31.25 "/>
<path style=" stroke:none;fill-rule:nonzero;fill:rgb(17.647059%,21.176471%,32.156863%);fill-opacity:1;" d="M 250 16.164062 C 250 25.089844 257.238281 32.328125 266.164062 32.328125 C 275.089844 32.328125 282.328125 25.089844 282.328125 16.164062 C 282.328125 7.238281 275.089844 0 266.164062 0 L 250 0 Z M 250 16.164062 "/>
<path style=" stroke:none;fill-rule:nonzero;fill:rgb(100%,78.039216%,0%);fill-opacity:1;" d="M 125 93.75 C 125 76.492188 138.992188 62.5 156.25 62.5 C 173.507812 62.5 187.5 76.492188 187.5 93.75 C 187.5 111.007812 173.507812 125 156.25 125 C 138.992188 125 125 111.007812 125 93.75 Z M 125 93.75 "/>
<path style=" stroke:none;fill-rule:nonzero;fill:rgb(17.647059%,21.176471%,32.156863%);fill-opacity:1;" d="M 139.007812 93.859375 C 139.007812 84.277344 146.777344 76.507812 156.359375 76.507812 C 165.9375 76.507812 173.707031 84.277344 173.707031 93.859375 C 173.707031 103.4375 165.9375 111.207031 156.359375 111.207031 C 146.777344 111.207031 139.007812 103.4375 139.007812 93.859375 Z M 139.007812 93.859375 "/>
<path style=" stroke:none;fill-rule:nonzero;fill:rgb(100%,45.490196%,23.529412%);fill-opacity:1;" d="M 312.5 343.964844 C 312.5 326.707031 326.492188 312.714844 343.75 312.714844 C 361.007812 312.714844 375 326.707031 375 343.964844 C 375 361.222656 361.007812 375.214844 343.75 375.214844 C 326.492188 375.214844 312.5 361.222656 312.5 343.964844 Z M 312.5 343.964844 "/>
<path style=" stroke:none;fill-rule:nonzero;fill:rgb(17.647059%,21.176471%,32.156863%);fill-opacity:1;" d="M 326.507812 343.640625 C 326.507812 334.0625 334.277344 326.292969 343.859375 326.292969 C 353.4375 326.292969 361.207031 334.0625 361.207031 343.640625 C 361.207031 353.222656 353.4375 360.992188 343.859375 360.992188 C 334.277344 360.992188 326.507812 353.222656 326.507812 343.640625 Z M 326.507812 343.640625 "/>
<path style=" stroke:none;fill-rule:nonzero;fill:rgb(83.529412%,88.235294%,33.333333%);fill-opacity:1;" d="M 250 218.964844 C 250 236.222656 236.058594 250.214844 218.859375 250.214844 C 201.660156 250.214844 187.714844 236.222656 187.714844 218.964844 C 187.714844 201.707031 201.660156 187.714844 218.859375 187.714844 L 250 187.714844 Z M 250 218.964844 "/>
<path style=" stroke:none;fill-rule:nonzero;fill:rgb(100%,45.490196%,23.529412%);fill-opacity:1;" d="M 125 187.714844 C 142.257812 187.714844 156.25 173.722656 156.25 156.464844 C 156.25 139.207031 142.257812 125.214844 125 125.214844 C 107.742188 125.214844 93.75 139.207031 93.75 156.464844 L 93.75 187.714844 Z M 125 187.714844 "/>
<path style=" stroke:none;fill-rule:nonzero;fill:rgb(100%,45.490196%,23.529412%);fill-opacity:1;" d="M 437.285156 125 C 437.285156 90.484375 465.265625 62.5 499.785156 62.5 L 499.785156 125 Z M 437.285156 125 "/>
<path style=" stroke:none;fill-rule:nonzero;fill:rgb(94.117647%,94.509804%,94.509804%);fill-opacity:1;" d="M 499.785156 250 C 465.265625 250 437.285156 222.015625 437.285156 187.5 L 499.785156 187.5 Z M 499.785156 250 "/>
<path style=" stroke:none;fill-rule:nonzero;fill:rgb(43.137255%,83.137255%,48.627451%);fill-opacity:1;" d="M 437.285156 187.5 C 437.285156 152.980469 465.265625 125 499.785156 125 L 499.785156 187.5 Z M 437.285156 187.5 "/>
<path style=" stroke:none;fill-rule:nonzero;fill:rgb(83.529412%,88.235294%,33.333333%);fill-opacity:1;" d="M 467.886719 187.5 C 467.886719 169.882812 482.167969 155.601562 499.785156 155.601562 L 499.785156 187.5 Z M 467.886719 187.5 "/>
<path style=" stroke:none;fill-rule:nonzero;fill:rgb(100%,78.039216%,0%);fill-opacity:1;" d="M 437.5 344.0625 C 437.5 361.320312 451.492188 375.3125 468.75 375.3125 C 486.007812 375.3125 500 361.320312 500 344.0625 C 500 326.804688 486.007812 312.8125 468.75 312.8125 L 437.5 312.8125 Z M 437.5 344.0625 "/>
<path style=" stroke:none;fill-rule:nonzero;fill:rgb(100%,78.039216%,0%);fill-opacity:1;" d="M 437.5 328.976562 C 437.5 337.902344 444.738281 345.140625 453.664062 345.140625 C 462.589844 345.140625 469.828125 337.902344 469.828125 328.976562 C 469.828125 320.050781 462.589844 312.8125 453.664062 312.8125 L 437.5 312.8125 Z M 437.5 328.976562 "/>
<path style=" stroke:none;fill-rule:nonzero;fill:rgb(100%,45.490196%,23.529412%);fill-opacity:1;" d="M 468.535156 250 C 485.792969 250 499.785156 263.992188 499.785156 281.25 C 499.785156 298.507812 485.792969 312.5 468.535156 312.5 C 451.277344 312.5 437.285156 298.507812 437.285156 281.25 C 437.285156 263.992188 451.277344 250 468.535156 250 Z M 468.535156 250 "/>
<path style=" stroke:none;fill-rule:nonzero;fill:rgb(17.647059%,21.176471%,32.156863%);fill-opacity:1;" d="M 468.859375 264.007812 C 478.4375 264.007812 486.207031 271.777344 486.207031 281.359375 C 486.207031 290.9375 478.4375 298.707031 468.859375 298.707031 C 459.277344 298.707031 451.507812 290.9375 451.507812 281.359375 C 451.507812 271.777344 459.277344 264.007812 468.859375 264.007812 Z M 468.859375 264.007812 "/>
</g>
</svg>
