<svg width="500" height="523" viewBox="0 0 500 523" fill="none" xmlns="http://www.w3.org/2000/svg">
<path d="M0 0H500V522.667H0V0Z" fill="white"/>
<path d="M0 435.055H83.3333C129.357 435.055 166.667 396.099 166.667 348.044H83.3333C37.31 348.044 0 387.001 0 435.055Z" fill="#2D3652"/>
<path d="M0 435.055H83.3333C129.357 435.055 166.667 396.099 166.667 348.044H83.3333C37.31 348.044 0 387.001 0 435.055Z" fill="#2D3652"/>
<path d="M0 0V174.022C0 270.131 74.62 348.044 166.667 348.044V174.022C166.667 77.9132 92.0467 0 0 0Z" fill="#FF743C"/>
<path d="M83.3333 174.622V260.895C83.3333 309.026 120.643 348.044 166.667 348.044V261.772C166.667 213.639 129.357 174.622 83.3333 174.622Z" fill="#2D3652"/>
<path d="M376 345.938V432.211C376 480.342 413.31 519.36 459.333 519.36V433.088C459.333 384.955 422.023 345.938 376 345.938Z" fill="#6ED47C"/>
<path d="M500 174.022H333.333C241.287 174.022 166.667 251.935 166.667 348.044H333.333C425.38 348.044 500 270.131 500 174.022Z" fill="#D5E155"/>
<path d="M333.333 261.033H250.421C204.165 261.033 166.667 299.99 166.667 348.044H249.579C295.836 348.044 333.333 309.088 333.333 261.033Z" fill="#2D3652"/>
<path d="M99.4253 476.161C99.4253 461.745 110.619 450.057 124.425 450.057C138.232 450.057 149.425 461.745 149.425 476.161C149.425 490.577 138.232 502.264 124.425 502.264C110.619 502.264 99.4253 490.577 99.4253 476.161Z" fill="#FF743C"/>
<path d="M30.6667 478.213C30.6667 470.524 36.6365 464.291 44.0001 464.291C51.3636 464.291 57.3334 470.524 57.3334 478.213C57.3334 485.901 51.3636 492.134 44.0001 492.134C36.6365 492.134 30.6667 485.901 30.6667 478.213Z" fill="#D5E155"/>
<path d="M376 86.9113C376 56.1572 399.879 31.2242 429.333 31.2242C458.788 31.2242 482.667 56.1572 482.667 86.9113C482.667 117.665 458.788 142.598 429.333 142.598C399.879 142.598 376 117.665 376 86.9113Z" fill="#FF743C"/>
<path d="M404 87.1943C404 72.7783 415.193 61.0909 429 61.0909C442.807 61.0909 454 72.7783 454 87.1943C454 101.61 442.807 113.298 429 113.298C415.193 113.298 404 101.61 404 87.1943Z" fill="#FFC700"/>
<path d="M166.667 435.055C166.667 387.001 203.977 348.044 250 348.044C296.023 348.044 333.333 387.001 333.333 435.055C333.333 483.11 296.023 522.067 250 522.067H166.667V435.055Z" fill="#FFC700"/>
<path d="M166.667 477.66C166.667 452.805 185.965 432.655 209.771 432.655C233.576 432.655 252.874 452.805 252.874 477.66C252.874 502.517 233.576 522.667 209.771 522.667H166.667V477.66Z" fill="#FFC700"/>
<path d="M166.667 87.0111C166.667 135.066 203.977 174.022 250 174.022C296.023 174.022 333.333 135.066 333.333 87.0111C333.333 38.9566 296.023 0 250 0H166.667V87.0111Z" fill="#6ED47C"/>
<path d="M166.667 45.0066C166.667 69.8618 185.965 90.0115 209.771 90.0115C233.576 90.0115 252.874 69.8618 252.874 45.0066C252.874 20.1497 233.576 0 209.771 0H166.667V45.0066Z" fill="#2D3652"/>
<path d="M166.667 45.0066C166.667 69.8618 185.965 90.0115 209.771 90.0115C233.576 90.0115 252.874 69.8618 252.874 45.0066C252.874 20.1497 233.576 0 209.771 0H166.667V45.0066Z" fill="#2D3652"/>
<path d="M0 0V-1H-1V0H0ZM500 0H501V-1H500V0ZM500 522.667V523.667H501V522.667H500ZM0 522.667H-1V523.667H0V522.667ZM0 1H500V-1H0V1ZM499 0V522.667H501V0H499ZM500 521.667H0V523.667H500V521.667ZM1 522.667V0H-1V522.667H1Z" fill="white"/>
</svg>
