<svg width="375" height="392" viewBox="0 0 375 392" fill="none" xmlns="http://www.w3.org/2000/svg">
<path d="M0 0H375V392H0V0Z" fill="white"/>
<path d="M0 326.292H62.5C97.0175 326.292 125 297.074 125 261.033H62.5C27.9825 261.033 0 290.251 0 326.292Z" fill="#2D3652"/>
<path d="M0 326.292H62.5C97.0175 326.292 125 297.074 125 261.033H62.5C27.9825 261.033 0 290.251 0 326.292Z" fill="#2D3652"/>
<path d="M0 0V130.517C0 202.598 55.965 261.033 125 261.033V130.517C125 58.4349 69.035 0 0 0Z" fill="#FF743C"/>
<path d="M62.5 130.967V195.671C62.5 231.769 90.4825 261.033 125 261.033V196.329C125 160.229 97.0175 130.967 62.5 130.967Z" fill="#2D3652"/>
<path d="M282 259.454V324.158C282 360.256 309.983 389.52 344.5 389.52V324.816C344.5 288.716 316.518 259.454 282 259.454Z" fill="#6ED47C"/>
<path d="M375 130.517H250C180.965 130.517 125 188.952 125 261.033H250C319.035 261.033 375 202.598 375 130.517Z" fill="#D5E155"/>
<path d="M250 195.775H187.816C153.124 195.775 125 224.992 125 261.033H187.184C221.877 261.033 250 231.816 250 195.775Z" fill="#2D3652"/>
<path d="M74.569 357.121C74.569 346.309 82.964 337.543 93.319 337.543C103.674 337.543 112.069 346.309 112.069 357.121C112.069 367.933 103.674 376.698 93.319 376.698C82.964 376.698 74.569 367.933 74.569 357.121Z" fill="#FF743C"/>
<path d="M23 358.66C23 352.893 27.4773 348.218 33 348.218C38.5227 348.218 43 352.893 43 358.66C43 364.426 38.5227 369.101 33 369.101C27.4773 369.101 23 364.426 23 358.66Z" fill="#D5E155"/>
<path d="M282 65.1835C282 42.1179 299.909 23.4182 322 23.4182C344.091 23.4182 362 42.1179 362 65.1835C362 88.2491 344.091 106.949 322 106.949C299.909 106.949 282 88.2491 282 65.1835Z" fill="#FF743C"/>
<path d="M303 65.3957C303 54.5837 311.395 45.8182 321.75 45.8182C332.105 45.8182 340.5 54.5837 340.5 65.3957C340.5 76.2077 332.105 84.9732 321.75 84.9732C311.395 84.9732 303 76.2077 303 65.3957Z" fill="#FFC700"/>
<path d="M125 326.292C125 290.251 152.983 261.033 187.5 261.033C222.018 261.033 250 290.251 250 326.292C250 362.332 222.018 391.55 187.5 391.55H125V326.292Z" fill="#FFC700"/>
<path d="M125 358.245C125 339.604 139.474 324.491 157.328 324.491C175.182 324.491 189.655 339.604 189.655 358.245C189.655 376.888 175.182 392 157.328 392H125V358.245Z" fill="#FFC700"/>
<path d="M125 65.2583C125 101.299 152.983 130.517 187.5 130.517C222.018 130.517 250 101.299 250 65.2583C250 29.2175 222.018 0 187.5 0H125V65.2583Z" fill="#6ED47C"/>
<path d="M125 33.755C125 52.3963 139.474 67.5086 157.328 67.5086C175.182 67.5086 189.655 52.3963 189.655 33.755C189.655 15.1123 175.182 0 157.328 0H125V33.755Z" fill="#2D3652"/>
<path d="M125 33.755C125 52.3963 139.474 67.5086 157.328 67.5086C175.182 67.5086 189.655 52.3963 189.655 33.755C189.655 15.1123 175.182 0 157.328 0H125V33.755Z" fill="#2D3652"/>
<path d="M0 0V-1H-1V0H0ZM375 0H376V-1H375V0ZM375 392V393H376V392H375ZM0 392H-1V393H0V392ZM0 1H375V-1H0V1ZM374 0V392H376V0H374ZM375 391H0V393H375V391ZM1 392V0H-1V392H1Z" fill="white"/>
</svg>
