<svg data-v-423bf9ae="" xmlns="http://www.w3.org/2000/svg" viewBox="0 0 462 107" class="iconLeft"><!----><!----><!----><g data-v-423bf9ae="" id="008ebaf7-f3b8-4dc9-b752-88ca2e82797b" fill="white" transform="matrix(5.952381134033203,0,0,5.952381134033203,116.24378967285156,4.638857841491699)"><path d="M1.30 13.09L1.30 13.09Q1.16 13.09 1.06 12.98L1.06 12.98L1.06 12.98Q0.95 12.88 0.95 12.74L0.95 12.74L0.95 3.65L0.95 3.65Q0.95 3.50 1.05 3.39L1.05 3.39L1.05 3.39Q1.15 3.29 1.30 3.29L1.30 3.29L7.91 3.29L7.91 3.29Q8.06 3.29 8.17 3.39L8.17 3.39L8.17 3.39Q8.27 3.50 8.27 3.65L8.27 3.65L8.27 5.04L8.27 5.04Q8.27 5.19 8.17 5.29L8.17 5.29L8.17 5.29Q8.06 5.39 7.91 5.39L7.91 5.39L3.49 5.39L3.49 7.17L7.60 7.17L7.60 7.17Q7.76 7.17 7.86 7.27L7.86 7.27L7.86 7.27Q7.97 7.38 7.97 7.53L7.97 7.53L7.97 8.81L7.97 8.81Q7.97 8.96 7.86 9.06L7.86 9.06L7.86 9.06Q7.76 9.17 7.60 9.17L7.60 9.17L3.49 9.17L3.49 10.99L8.02 10.99L8.02 10.99Q8.18 10.99 8.28 11.09L8.28 11.09L8.28 11.09Q8.39 11.20 8.39 11.35L8.39 11.35L8.39 12.74L8.39 12.74Q8.39 12.89 8.28 12.99L8.28 12.99L8.28 12.99Q8.18 13.09 8.02 13.09L8.02 13.09L1.30 13.09ZM12.39 13.09L12.39 13.09Q12.19 13.09 12.09 13.00L12.09 13.00L12.09 13.00Q11.98 12.91 11.91 12.74L11.91 12.74L9.25 6.24L9.25 6.24Q9.24 6.20 9.24 6.13L9.24 6.13L9.24 6.13Q9.24 5.99 9.33 5.90L9.33 5.90L9.33 5.90Q9.42 5.81 9.56 5.81L9.56 5.81L11.23 5.81L11.23 5.81Q11.52 5.81 11.65 6.10L11.65 6.10L13.17 10.29L14.71 6.10L14.71 6.10Q14.76 5.99 14.85 5.90L14.85 5.90L14.85 5.90Q14.95 5.81 15.12 5.81L15.12 5.81L16.80 5.81L16.80 5.81Q16.93 5.81 17.02 5.90L17.02 5.90L17.02 5.90Q17.12 5.99 17.12 6.13L17.12 6.13L17.09 6.24L14.45 12.74L14.45 12.74Q14.38 12.91 14.27 13.00L14.27 13.00L14.27 13.00Q14.15 13.09 13.96 13.09L13.96 13.09L12.39 13.09ZM21.59 13.23L21.59 13.23Q19.88 13.23 18.90 12.31L18.90 12.31L18.90 12.31Q17.92 11.40 17.89 9.65L17.89 9.65L17.89 9.21L17.89 9.21Q17.95 7.55 18.93 6.61L18.93 6.61L18.93 6.61Q19.91 5.67 21.57 5.67L21.57 5.67L21.57 5.67Q22.78 5.67 23.61 6.15L23.61 6.15L23.61 6.15Q24.44 6.64 24.86 7.48L24.86 7.48L24.86 7.48Q25.27 8.33 25.27 9.41L25.27 9.41L25.27 9.76L25.27 9.76Q25.27 9.91 25.17 10.02L25.17 10.02L25.17 10.02Q25.06 10.12 24.91 10.12L24.91 10.12L20.47 10.12L20.47 10.21L20.47 10.21Q20.48 10.84 20.76 11.22L20.76 11.22L20.76 11.22Q21.04 11.61 21.56 11.61L21.56 11.61L21.56 11.61Q21.90 11.61 22.10 11.47L22.10 11.47L22.10 11.47Q22.30 11.34 22.48 11.13L22.48 11.13L22.48 11.13Q22.61 10.99 22.69 10.96L22.69 10.96L22.69 10.96Q22.76 10.92 22.93 10.92L22.93 10.92L24.77 10.92L24.77 10.92Q24.89 10.92 24.98 11.00L24.98 11.00L24.98 11.00Q25.07 11.07 25.07 11.19L25.07 11.19L25.07 11.19Q25.07 11.55 24.66 12.04L24.66 12.04L24.66 12.04Q24.25 12.53 23.46 12.88L23.46 12.88L23.46 12.88Q22.67 13.23 21.59 13.23L21.59 13.23ZM20.47 8.69L22.69 8.69L22.69 8.67L22.69 8.67Q22.69 7.99 22.40 7.62L22.40 7.62L22.40 7.62Q22.11 7.25 21.57 7.25L21.57 7.25L21.57 7.25Q21.04 7.25 20.76 7.62L20.76 7.62L20.76 7.62Q20.47 7.99 20.47 8.67L20.47 8.67L20.47 8.69ZM26.88 13.09L26.88 13.09Q26.74 13.09 26.64 12.98L26.64 12.98L26.64 12.98Q26.53 12.88 26.53 12.74L26.53 12.74L26.53 6.16L26.53 6.16Q26.53 6.01 26.64 5.91L26.64 5.91L26.64 5.91Q26.74 5.81 26.88 5.81L26.88 5.81L28.60 5.81L28.60 5.81Q28.76 5.81 28.85 5.91L28.85 5.91L28.85 5.91Q28.95 6.01 28.95 6.16L28.95 6.16L28.95 6.69L28.95 6.69Q29.33 6.23 29.93 5.95L29.93 5.95L29.93 5.95Q30.52 5.67 31.29 5.67L31.29 5.67L31.29 5.67Q32.09 5.67 32.71 6.03L32.71 6.03L32.71 6.03Q33.33 6.40 33.69 7.11L33.69 7.11L33.69 7.11Q34.05 7.83 34.05 8.83L34.05 8.83L34.05 12.74L34.05 12.74Q34.05 12.88 33.95 12.98L33.95 12.98L33.95 12.98Q33.85 13.09 33.70 13.09L33.70 13.09L31.84 13.09L31.84 13.09Q31.68 13.09 31.58 12.99L31.58 12.99L31.58 12.99Q31.47 12.89 31.47 12.74L31.47 12.74L31.47 8.92L31.47 8.92Q31.47 8.29 31.17 7.95L31.17 7.95L31.17 7.95Q30.87 7.62 30.30 7.62L30.30 7.62L30.30 7.62Q29.74 7.62 29.41 7.96L29.41 7.96L29.41 7.96Q29.09 8.30 29.09 8.92L29.09 8.92L29.09 12.74L29.09 12.74Q29.09 12.88 28.99 12.98L28.99 12.98L28.99 12.98Q28.90 13.09 28.74 13.09L28.74 13.09L26.88 13.09ZM39.40 13.09L39.40 13.09Q36.43 13.09 36.43 10.30L36.43 10.30L36.43 7.71L35.32 7.71L35.32 7.71Q35.18 7.71 35.08 7.61L35.08 7.61L35.08 7.61Q34.97 7.50 34.97 7.36L34.97 7.36L34.97 6.16L34.97 6.16Q34.97 6.01 35.08 5.91L35.08 5.91L35.08 5.91Q35.18 5.81 35.32 5.81L35.32 5.81L36.43 5.81L36.43 3.50L36.43 3.50Q36.43 3.35 36.53 3.25L36.53 3.25L36.53 3.25Q36.64 3.15 36.78 3.15L36.78 3.15L38.50 3.15L38.50 3.15Q38.65 3.15 38.75 3.25L38.75 3.25L38.75 3.25Q38.85 3.35 38.85 3.50L38.85 3.50L38.85 5.81L40.60 5.81L40.60 5.81Q40.75 5.81 40.86 5.91L40.86 5.91L40.86 5.91Q40.96 6.01 40.96 6.16L40.96 6.16L40.96 7.36L40.96 7.36Q40.96 7.52 40.86 7.62L40.86 7.62L40.86 7.62Q40.75 7.71 40.60 7.71L40.60 7.71L38.85 7.71L38.85 10.09L38.85 10.09Q38.85 10.58 39.03 10.84L39.03 10.84L39.03 10.84Q39.21 11.09 39.62 11.09L39.62 11.09L40.73 11.09L40.73 11.09Q40.88 11.09 40.98 11.19L40.98 11.19L40.98 11.19Q41.08 11.30 41.08 11.45L41.08 11.45L41.08 12.74L41.08 12.74Q41.08 12.88 40.98 12.98L40.98 12.98L40.98 12.98Q40.88 13.09 40.73 13.09L40.73 13.09L39.40 13.09ZM45.71 13.23L45.71 13.23Q43.95 13.23 43.00 12.41L43.00 12.41L43.00 12.41Q42.06 11.59 41.97 10.08L41.97 10.08L41.97 10.08Q41.96 9.90 41.96 9.45L41.96 9.45L41.96 9.45Q41.96 9.00 41.97 8.82L41.97 8.82L41.97 8.82Q42.06 7.34 43.03 6.50L43.03 6.50L43.03 6.50Q44.00 5.67 45.71 5.67L45.71 5.67L45.71 5.67Q47.42 5.67 48.39 6.50L48.39 6.50L48.39 6.50Q49.36 7.34 49.45 8.82L49.45 8.82L49.45 8.82Q49.48 9.18 49.48 9.45L49.48 9.45L49.48 9.45Q49.48 9.72 49.45 10.08L49.45 10.08L49.45 10.08Q49.36 11.59 48.42 12.41L48.42 12.41L48.42 12.41Q47.47 13.23 45.71 13.23L45.71 13.23ZM45.71 11.47L45.71 11.47Q46.28 11.47 46.56 11.11L46.56 11.11L46.56 11.11Q46.84 10.75 46.89 10.01L46.89 10.01L46.89 10.01Q46.90 9.87 46.90 9.45L46.90 9.45L46.90 9.45Q46.90 9.03 46.89 8.89L46.89 8.89L46.89 8.89Q46.84 8.16 46.56 7.80L46.56 7.80L46.56 7.80Q46.28 7.43 45.71 7.43L45.71 7.43L45.71 7.43Q45.14 7.43 44.86 7.80L44.86 7.80L44.86 7.80Q44.58 8.16 44.53 8.89L44.53 8.89L44.52 9.45L44.53 10.01L44.53 10.01Q44.58 10.75 44.86 11.11L44.86 11.11L44.86 11.11Q45.14 11.47 45.71 11.47L45.71 11.47ZM54.31 13.23L54.31 13.23Q52.54 13.23 51.60 12.41L51.60 12.41L51.60 12.41Q50.65 11.59 50.57 10.08L50.57 10.08L50.57 10.08Q50.55 9.90 50.55 9.45L50.55 9.45L50.55 9.45Q50.55 9.00 50.57 8.82L50.57 8.82L50.57 8.82Q50.65 7.34 51.63 6.50L51.63 6.50L51.63 6.50Q52.60 5.67 54.31 5.67L54.31 5.67L54.31 5.67Q56.01 5.67 56.99 6.50L56.99 6.50L56.99 6.50Q57.96 7.34 58.04 8.82L58.04 8.82L58.04 8.82Q58.07 9.18 58.07 9.45L58.07 9.45L58.07 9.45Q58.07 9.72 58.04 10.08L58.04 10.08L58.04 10.08Q57.96 11.59 57.02 12.41L57.02 12.41L57.02 12.41Q56.07 13.23 54.31 13.23L54.31 13.23ZM54.31 11.47L54.31 11.47Q54.88 11.47 55.16 11.11L55.16 11.11L55.16 11.11Q55.44 10.75 55.48 10.01L55.48 10.01L55.48 10.01Q55.50 9.87 55.50 9.45L55.50 9.45L55.50 9.45Q55.50 9.03 55.48 8.89L55.48 8.89L55.48 8.89Q55.44 8.16 55.16 7.80L55.16 7.80L55.16 7.80Q54.88 7.43 54.31 7.43L54.31 7.43L54.31 7.43Q53.73 7.43 53.45 7.80L53.45 7.80L53.45 7.80Q53.17 8.16 53.13 8.89L53.13 8.89L53.12 9.45L53.13 10.01L53.13 10.01Q53.17 10.75 53.45 11.11L53.45 11.11L53.45 11.11Q53.73 11.47 54.31 11.47L54.31 11.47Z"></path></g><!----><g data-v-423bf9ae="" id="06c9f600-1062-48f9-9e1e-54a2c8b168d1" transform="matrix(1.0892287492752075,0,0,1.0892287492752075,-3.2367565631866455,-0.47836917638778687)" stroke="none" fill="white"><path d="M96.72 6.84a5.27 5.27 0 0 0-1.49-4.47 4.91 4.91 0 0 0-4-1.33C61.11 4.7 43.86 18.19 34 31.47l-4.61-.24a11.86 11.86 0 0 0-9 3.46l-7.2 7.2a.75.75 0 0 0 .24 1.22l11.48 4.76a66.25 66.25 0 0 0-3.09 10.06 3.72 3.72 0 0 0 1 3.42l13.62 13.58a3.72 3.72 0 0 0 3.42 1 66.32 66.32 0 0 0 10.06-3.09l4.76 11.48a.75.75 0 0 0 1.22.24l7.2-7.2a11.87 11.87 0 0 0 3.46-9l-.24-4.61C79.57 54 93 36.78 96.72 6.84zm-38 41.35a6.45 6.45 0 1 1 0-9.12 6.45 6.45 0 0 1 .01 9.11zm4-13.08a8.49 8.49 0 1 1 12 0 8.49 8.49 0 0 1-12.03-.01zM10.9 77.39a12.45 12.45 0 0 0-6.28-.5 1.14 1.14 0 0 1-1-.31 1.15 1.15 0 0 1-.24-1.3c2.18-4.83 8.18-14.54 18.93-6.7a.54.54 0 0 1 0 .8A11.71 11.71 0 0 0 17.83 79a.85.85 0 0 0 .82.82 11.71 11.71 0 0 0 9.6-4.37.54.54 0 0 1 .83 0c1.5 1.79 5.62 7.6 1.06 13.22a11.86 11.86 0 0 1-8 4.2c-4.45.49-12.63 1.89-16 5.74a1.15 1.15 0 0 1-2-.42C3 94.15 1.21 85.15 10.9 77.39z"></path></g><!----></svg>