<svg width="375" height="370" viewBox="0 0 375 370" fill="none" xmlns="http://www.w3.org/2000/svg">
<path d="M0 0H375V370H0V0Z" fill="#FAFAEF"/>
<path d="M250 236C319.035 236 375 288.831 375 354L250 354L250 236Z" fill="white"/>
<path d="M125 1.00694e-05C125 65.169 69.0349 118 3.05176e-05 118L2.50867e-05 1.52588e-05L125 1.00694e-05Z" fill="#2D3652"/>
<path d="M250 290C283.26 290 310.221 318.561 310.221 353.793L250 353.793L250 290Z" fill="#D5E155"/>
<path d="M1.96559e-05 118L2.50867e-05 236C2.80861e-05 301.169 55.965 354 125 354L125 236C125 170.831 69.035 118 1.96559e-05 118Z" fill="white"/>
<path d="M62.5 236.407L62.5 294.906C62.5 327.542 90.4825 354 125 354L125 295.501C125 262.863 97.0174 236.407 62.5 236.407Z" fill="#2D3652"/>
<path d="M125 354L125 236C125 170.831 180.965 118 250 118L250 236C250 301.169 194.035 354 125 354Z" fill="#2D3652"/>
<path d="M187.5 236L187.5 177.298C187.5 144.549 215.482 118 250 118L250 176.702C250 209.452 222.017 236 187.5 236Z" fill="#6ED47C"/>
<path d="M124.569 152.993C103.858 152.993 87.0689 137.145 87.0689 117.593C87.0689 98.0417 103.858 82.1931 124.569 82.1931C145.28 82.1931 162.069 98.0417 162.069 117.593C162.069 137.145 145.28 152.993 124.569 152.993Z" fill="#FF743C"/>
<path d="M204.5 94.8C183.789 94.8 167 78.9514 167 59.4C167 39.8486 183.789 24 204.5 24C225.211 24 242 39.8486 242 59.4C242 78.9514 225.211 94.8 204.5 94.8Z" fill="white"/>
<path d="M124.75 135.4C114.395 135.4 106 127.475 106 117.7C106 107.925 114.395 99.9999 124.75 99.9999C135.105 99.9999 143.5 107.925 143.5 117.7C143.5 127.475 135.105 135.4 124.75 135.4Z" fill="#FFC700"/>
<path d="M218.103 369.869C208.819 369.869 201.293 362.764 201.293 354C201.293 345.236 208.819 338.131 218.103 338.131C227.388 338.131 234.914 345.236 234.914 354C234.914 362.764 227.388 369.869 218.103 369.869Z" fill="#FF743C"/>
<path d="M204.81 74.7379C195.526 74.7379 188 67.6333 188 58.8689C188 50.1046 195.526 43 204.81 43C214.095 43 221.621 50.1046 221.621 58.8689C221.621 67.6333 214.095 74.7379 204.81 74.7379Z" fill="#D5E155"/>
<path d="M310.076 202C289.599 202 272.999 186.33 272.999 167C272.999 147.67 289.599 132 310.076 132C330.552 132 347.152 147.67 347.152 167C347.152 186.33 330.552 202 310.076 202Z" fill="#FF743C"/>
<path d="M311.538 184C301.3 184 293 176.165 293 166.5C293 156.835 301.3 149 311.538 149C321.776 149 330.076 156.835 330.076 166.5C330.076 176.165 321.776 184 311.538 184Z" fill="#2D3652"/>
<path d="M292.593 42.7379C286.742 42.7379 282 38.2608 282 32.7379C282 27.2149 286.742 22.7379 292.593 22.7379C298.444 22.7379 303.186 27.2149 303.186 32.7379C303.186 38.2608 298.444 42.7379 292.593 42.7379Z" fill="#6ED47C"/>
</svg>
